<?xml version="1.0" standalone="no"?><!DOCTYPE svg PUBLIC "-//W3C//DTD SVG 1.1//EN" "http://www.w3.org/Graphics/SVG/1.1/DTD/svg11.dtd"><svg t="1720864280341" class="icon" viewBox="0 0 1024 1024" version="1.1" xmlns="http://www.w3.org/2000/svg" p-id="10932" xmlns:xlink="http://www.w3.org/1999/xlink" width="256" height="256"><path d="M472.11 602.06c-91.74 0-177.76-8.86-242.21-24.94-66.9-16.69-84.6-34.92-86.89-41l0.08-116.6q28.56 16.07 77.13 28.21c67.53 16.85 157 26.13 251.89 26.13s184.36-9.28 251.89-26.13q48.74-12.15 77.36-28.34l0.12 115.19 40 15.5v-14.92-0.28l-0.17-164.36q0.18-1.9 0.18-3.84h-0.18l-0.16-159.89a43.35 43.35 0 0 0 0.8-8.31h-0.61a38.28 38.28 0 0 0-0.17-4v-0.43c-0.17-34.23-39.64-61.43-117.31-80.83C656.39 96.34 567 87.05 472.11 87.05s-184.25 9.29-251.64 26.14c-77.59 19.4-117 46.57-117.22 80.78l-0.06 0.53a33 33 0 0 0 0 8.41l-0.11 163.77h-0.4a44.57 44.57 0 0 0 0.39 5.79L103 534.88h-0.28a43.75 43.75 0 0 0 0.27 4.87l-0.1 154.92a33 33 0 0 0-0.05 7.79v0.55c0.16 34.82 39.64 62.58 117.37 82.51 67.56 17.32 157.06 26.86 252 26.86q11.64 0 23.16-0.21v-40c-7.68 0.13-15.39 0.22-23.16 0.22-91.7 0-177.67-9.09-242.08-25.61-71.26-18.27-87.3-38.36-87.3-44 0-1.22-0.06-2.29-0.14-3.16l0.14-0.51 0.17-111.46q28.58 16.11 77.25 28.28c67.53 16.85 157 26.13 251.89 26.13q23 0 45.56-0.73A91 91 0 0 1 526 633a89.56 89.56 0 0 1 13.23-32.53c-21.88 1.04-44.32 1.59-67.12 1.59z m242.2-193.14c-64.45 16.09-150.47 24.94-242.2 24.94S294.35 425 229.9 408.92c-65.86-16.43-84-34.35-86.77-40.7l0.08-117.09q28.6 16.19 77.47 28.4c67.53 16.85 157 26.13 251.89 26.13s184.36-9.28 251.88-26.13q48.19-12 76.73-28l0.12 116.1c-1.85 5.81-19.06 24.37-86.99 41.29zM143.24 194.24c0-4.34 14.76-24.2 86.93-42.25 64.31-16.08 150.23-24.94 241.94-24.94s177.66 8.86 242 24.94c72.23 18 87 37.91 87 42.25 0 1 0 1.92 0.1 2.66l-0.1 0.43v3.53c-3.89 7-23.2 24.1-86.36 39.86-64.45 16.09-150.47 24.94-242.2 24.94s-177.76-8.85-242.21-24.94c-70-17.45-86.11-36.58-87.11-41.75v-1l-0.16-0.5c0.1-0.9 0.17-2 0.17-3.23z" fill="#3FABBA" p-id="10933"></path><path d="M702.15 749.59a60.25 60.25 0 0 1 0.5-7.74c-1.76-0.6-3.51-1.27-5.23-2l-137.89-61.3a61.63 61.63 0 0 1-11.15-6.43 12.31 12.31 0 0 0-11.74 12.29v175a12.3 12.3 0 0 0 7.26 11.22l145.43 65.21a12.18 12.18 0 0 0 5 1.09 12.42 12.42 0 0 0 8.45-3.37 61.28 61.28 0 0 1-0.66-8.94zM888.32 624.76h0.14a12.32 12.32 0 0 0-6.12-17.83l-143.88-55.77a12.29 12.29 0 0 0-8.88 0l-145.1 56.2a12.28 12.28 0 0 0-6.43 17.21l0.46 0.19L723.93 690q2.37 1.07 4.6 2.31a12.17 12.17 0 0 0 2.94-0.78l90.8-37.13zM909.07 672.07a62.08 62.08 0 0 1-12.27 6.7l-59.53 24.34-78.62 35.26a12.24 12.24 0 0 0-3.41 2.32 61 61 0 0 1 0.65 8.9v175a61.28 61.28 0 0 1-0.66 8.94 12.4 12.4 0 0 0 8.44 3.37 12.19 12.19 0 0 0 5-1.09l145.43-65.17a12.3 12.3 0 0 0 7.26-11.22v-175a12.31 12.31 0 0 0-12.29-12.35z" fill="#3FABBA" p-id="10934"></path></svg>