<?xml version="1.0" standalone="no"?><!DOCTYPE svg PUBLIC "-//W3C//DTD SVG 1.1//EN" "http://www.w3.org/Graphics/SVG/1.1/DTD/svg11.dtd"><svg t="1720865118009" class="icon" viewBox="0 0 1024 1024" version="1.1" xmlns="http://www.w3.org/2000/svg" p-id="13570" xmlns:xlink="http://www.w3.org/1999/xlink" width="256" height="256"><path d="M511.7952 572.0064c175.616 0 318.3616-57.0368 346.9312-130.6624V326.2464c-33.5872 73.5232-175.2064 126.5664-346.9312 126.5664s-318.0544-57.0368-346.5216-130.6624V444.416c33.5872 73.5232 175.3088 127.5904 346.5216 127.5904z" fill="#55b772" p-id="13571" data-spm-anchor-id="a313x.search_index.0.i5.37bb3a81jUOxki" class=""></path><path d="M511.7952 729.9072c175.616 0 318.3616-57.0368 346.9312-130.3552V481.3824c-28.5696 73.216-175.2064 130.3552-346.9312 130.3552S198.8608 558.592 165.2736 485.376v118.1696c33.5872 73.6256 175.3088 126.3616 346.5216 126.3616z" fill="#43955a" p-id="13572" data-spm-anchor-id="a313x.search_index.0.i7.37bb3a81jUOxki" class=""></path><path d="M511.7952 773.5296c-171.2128 0-312.9344-51.712-346.5216-124.928v114.176c0 85.7088 155.136 158.8224 346.5216 158.8224s346.9312-69.2224 346.9312-158.8224V644.1984c-28.5696 73.5232-171.2128 129.3312-346.9312 129.3312z" fill="#317244" p-id="13573" data-spm-anchor-id="a313x.search_index.0.i10.37bb3a81jUOxki" class="selected"></path><path d="M165.2736 254.8736a346.7264 152.4736 0 1 0 693.4528 0 346.7264 152.4736 0 1 0-693.4528 0Z" fill="#8fdcb0" p-id="13574" data-spm-anchor-id="a313x.search_index.0.i6.37bb3a81jUOxki" class=""></path></svg>