<?xml version="1.0" standalone="no"?><!DOCTYPE svg PUBLIC "-//W3C//DTD SVG 1.1//EN" "http://www.w3.org/Graphics/SVG/1.1/DTD/svg11.dtd"><svg t="1720869858699" class="icon" viewBox="0 0 1024 1024" version="1.1" xmlns="http://www.w3.org/2000/svg" p-id="28414" xmlns:xlink="http://www.w3.org/1999/xlink" width="256" height="256"><path d="M512 24.60871835555554C242.47816185555553 24.60871835555554 23.953382379629602 243.1334978314814 23.953382379629602 512.6553359759258S242.47816185555553 1000.7019535962963 512 1000.7019535962963s488.0466176203704-218.52477947592592 488.0466176203704-488.0466176203704S781.5218381444446 24.60871835555554 512 24.60871835555554z m58.62278665555556 594.4493592407407l-103.90054908888891 104.01970144074073c-44.92030635740741 44.80115400555556-118.31794251851852 44.80115400555556-163.11909652407408 0l-1.906431751851852-1.906431751851852c-44.92030635740741-44.80115400555556-44.92030635740741-118.31794251851852 0-163.23824887592593l72.8018753814815-72.68272400925927c-0.35745607592592593 21.44736161666667 3.4554084074074076 42.894722253703705 11.676897174074075 63.03141191851852l-47.065042812962965 47.06504183333333c-24.4261615962963 24.307009244444444-24.4261615962963 63.98462779444446 0 88.2916370388889l1.906431751851852 1.906431751851852c24.4261615962963 24.307009244444444 63.98462779444446 24.307009244444444 88.41078841111111 0l104.01970242037036-103.90054908888891c24.4261615962963-24.307009244444444 24.4261615962963-63.98462779444446 0-88.41078841111111l-1.9064327314814815-1.9064327314814815c-3.8128644833333336-3.8128644833333336-7.983184062962963-6.910816814814815-12.391808346296298-9.532160718518519l38.0094895425926-38.0094895425926c4.170320559259259 3.0979523314814816 8.102336414814815 6.434208387037037 11.796048546296298 10.247072870370372l1.9064327314814815 1.906431751851852c44.56285028148148 44.80115400555556 44.56285028148148 118.31794251851852-0.2383047037037037 163.11909652407408z m151.68050405370371-151.68050405370371l-72.68272302962964 72.68272400925927c0.35745607592592593-21.44736161666667-3.4554084074074076-42.894722253703705-11.676897174074075-63.03141093888889l46.94589046111112-47.065042812962965c24.4261615962963-24.307009244444444 24.4261615962963-63.98462779444446 0-88.41078841111111l-1.906431751851852-1.9064327314814815c-24.4261615962963-24.4261615962963-63.98462779444446-24.4261615962963-88.2916370388889 0l-104.01970144074073 103.90055006851853c-24.4261615962963 24.4261615962963-24.4261615962963 63.98462779444446 0 88.41078841111111l1.9064327314814815 1.906431751851852c3.8128644833333336 3.8128644833333336 7.983184062962963 7.029968187037038 12.391808346296298 9.532160718518519l-38.00949052222222 38.12864189444445c-4.051168207407407-3.0979523314814816-8.102336414814815-6.55336073888889-11.796048546296298-10.247072870370372l-1.906431751851852-1.906431751851852c-44.92030635740741-44.92030635740741-44.92030635740741-118.31794251851852 0-163.11909652407408l103.90054908888891-104.01970144074073c44.92030635740741-44.92030635740741 118.31794251851852-44.92030635740741 163.11909652407408 0l1.9064327314814815 1.906431751851852c45.039458709259264 44.92030635740741 45.039458709259264 118.31794251851852 0.11915137222222222 163.23824887592593z" fill="#FF9843" p-id="28415"></path></svg>