<?xml version="1.0" standalone="no"?><!DOCTYPE svg PUBLIC "-//W3C//DTD SVG 1.1//EN" "http://www.w3.org/Graphics/SVG/1.1/DTD/svg11.dtd"><svg t="1720881927489" class="icon" viewBox="0 0 1024 1024" version="1.1" xmlns="http://www.w3.org/2000/svg" p-id="41578" xmlns:xlink="http://www.w3.org/1999/xlink" width="256" height="256"><path d="M640 440.96A185.6 185.6 0 1 1 448 256a185.6 185.6 0 0 1 192 184.96z" fill="#1296db" p-id="41579"></path><path d="M657.28 87.68A458.24 458.24 0 0 0 520.96 64H512a373.76 373.76 0 0 0-46.72 0 448 448 0 0 0-342.4 225.28 272 272 0 0 0-14.08 26.88A441.6 441.6 0 0 0 64 512a448 448 0 0 0 414.72 448A247.04 247.04 0 0 0 512 960h12.16a439.68 439.68 0 0 0 384-231.68 423.68 423.68 0 0 0 49.28-140.8A479.36 479.36 0 0 0 960 512a448 448 0 0 0-302.72-424.32z m143.36 722.56a42.88 42.88 0 0 1-30.72 12.8 41.6 41.6 0 0 1-30.08-12.8l-141.44-141.44a271.36 271.36 0 0 1-350.72-49.92c-5.12-5.12-9.6-11.52-14.72-17.28a280.96 280.96 0 0 1-32-56.32 133.12 133.12 0 0 1-8.96-19.2 272 272 0 0 1 474.88-248.96 29.44 29.44 0 0 1 5.76 8.96 209.92 209.92 0 0 1 24.96 42.24 64 64 0 0 1 6.4 10.88 274.56 274.56 0 0 1 19.84 101.76 270.08 270.08 0 0 1-64 170.24l138.88 138.88a43.52 43.52 0 0 1 0 60.16z" fill="#1296db" p-id="41580"></path></svg>